<svg width="10898" height="2939" viewBox="0 0 10898 2939" fill="none" xmlns="http://www.w3.org/2000/svg">
<g id="sine">
<g id="blueg">
<path id="blue" d="M2462.98 2897.52C2183.67 2897.52 2021.11 2616.12 1923.07 2404.48C1801.57 2141.25 1702.13 1797.46 1606.05 1463.42L1603.81 1455.26C1520.02 1167.01 1434.83 869.029 1335.67 630.538C1187.36 273.59 1035.13 107.225 856.931 107.225C696.606 107.225 553.598 247.793 418.969 537.089C301.099 791.638 202.781 1133.84 107.815 1463.68L0 1436.3C96.0836 1102.26 195.519 756.891 317.02 494.972C415.059 283.33 577.898 1.93115 856.931 1.93115C1159.43 1.93115 1334.28 339.136 1439.58 592.632C1540.97 836.388 1627.55 1137.27 1711.63 1428.14L1713.86 1436.3C1809.11 1765.61 1907.15 2107.82 2025.3 2362.89C2159.65 2652.45 2302.65 2792.76 2462.98 2792.76C2641.18 2792.76 2793.41 2626.39 2941.72 2268.92C3040.88 2030.16 3126.91 1731.65 3210.14 1443.15L3212.1 1436.3L3319.91 1462.63L3317.95 1469.47C3234.16 1760.87 3147.02 2062.28 3045.63 2306.3C2940.32 2560.85 2765.2 2897.52 2462.98 2897.52Z" fill="#009FE3"/>
<path id="blue_2" d="M5674.44 2897.52C5395.13 2897.52 5232.57 2616.12 5134.53 2404.48C5013.03 2141.25 4913.59 1797.46 4817.51 1463.42L4815.27 1455.26C4731.48 1167.01 4646.29 869.029 4547.13 630.538C4398.82 273.59 4246.59 107.225 4068.39 107.225C3908.07 107.225 3765.06 247.793 3630.43 537.089C3512.56 791.638 3414.24 1133.84 3319.28 1463.68L3211.46 1436.3C3307.54 1102.26 3406.98 756.891 3528.48 494.972C3626.52 283.33 3789.36 1.93115 4068.39 1.93115C4370.89 1.93115 4545.74 339.136 4651.04 592.632C4752.43 836.388 4839.02 1137.27 4923.09 1428.14L4925.32 1436.3C5020.57 1765.61 5118.61 2107.82 5236.76 2362.89C5371.11 2652.45 5514.11 2792.76 5674.44 2792.76C5852.64 2792.76 6004.87 2626.39 6153.18 2268.92C6252.34 2030.16 6338.37 1731.65 6421.6 1443.15L6423.56 1436.3L6531.37 1462.63L6529.42 1469.47C6445.62 1760.87 6358.48 2062.28 6257.09 2306.3C6151.78 2560.85 5976.66 2897.52 5674.44 2897.52Z" fill="#009FE3"/>
<path id="blue_3" d="M8883.64 2908.47C8604.33 2908.47 8441.77 2627.07 8343.73 2415.43C8222.23 2152.2 8122.79 1808.41 8026.71 1474.36L8024.47 1466.2C7940.68 1177.96 7855.49 879.979 7756.33 641.487C7608.02 284.54 7455.79 118.175 7277.59 118.175C7117.27 118.175 6974.26 258.743 6839.63 548.039C6721.76 802.587 6623.44 1144.79 6528.48 1474.63L6420.66 1447.25C6516.75 1113.21 6616.18 767.84 6737.68 505.921C6835.72 294.279 6998.56 12.8804 7277.59 12.8804C7580.09 12.8804 7754.94 350.085 7860.24 603.581C7961.63 847.338 8048.22 1148.22 8132.29 1439.09L8134.52 1447.25C8229.77 1776.56 8327.81 2118.77 8445.96 2373.84C8580.31 2663.4 8723.32 2803.7 8883.64 2803.7C9061.84 2803.7 9214.07 2637.34 9362.38 2279.87C9461.54 2041.11 9547.57 1742.6 9630.8 1454.1L9632.76 1447.25L9740.57 1473.58L9738.62 1480.42C9654.82 1771.82 9567.68 2073.23 9466.29 2317.25C9360.99 2571.79 9185.86 2908.47 8883.64 2908.47Z" fill="#009FE3"/>
</g>
<g id="yellowg">
<path id="yellow" d="M2980.01 48.7872V177.509C2972.48 170.139 2964.72 163.558 2957.19 157.504C2919.48 125.586 2874.09 108.013 2827.33 107.226C2667.58 107.226 2530.65 313.339 2396.22 755.575L2391.2 772.422C2376.6 821.384 2362.22 872.452 2348.07 924.572C2302.43 1088.3 2261.57 1265.46 2220.72 1436.83L2217.3 1451.83L2214.79 1463.15C2138.34 1787.99 2059.37 2123.61 1963.75 2382.9C1961.24 2390.27 1958.5 2397.38 1955.76 2404.48C1943.21 2437.65 1929.29 2472.66 1914 2507.93C1831.38 2697.46 1706.54 2897.52 1514.61 2897.52C1281.83 2897.52 1136.45 2600.59 1035.35 2298.14C1020.06 2252.33 1005.68 2206.27 992.218 2161.25C990.392 2155.46 988.794 2149.67 987.197 2143.88C926.034 1937.5 870.805 1702.43 817.173 1475L814.434 1463.15L808.273 1436.83C744.143 1164.12 677.959 885.613 602.875 655.809C589.41 614.481 575.489 574.732 561.111 537.089L553.123 516.557C491.276 361.511 428.743 251.215 362.56 184.617C355.029 176.983 347.269 169.876 339.738 163.558V39.3107C347.497 43.7857 355.257 48.524 362.56 53.5255C467.769 125.389 545.135 260.955 601.506 391.52C616.796 426.794 630.718 461.804 643.27 494.972C646.008 502.079 648.747 509.186 651.257 516.557C746.881 775.581 825.845 1111.47 902.299 1436.04L904.809 1447.1C905.951 1452.1 907.092 1457.36 908.461 1462.36C949.084 1634.52 990.62 1810.62 1034.89 1974.09C1049.04 2026.74 1063.42 2077.54 1078.03 2126.77L1083.05 2143.62C1217.24 2586.64 1354.4 2792.23 1514.38 2792.23C1642.19 2792.23 1756.52 2658.24 1864.02 2382.9L1872 2362.37C1886.38 2324.72 1900.3 2284.97 1913.77 2243.65C1989.77 2013.84 2055.95 1735.34 2119.17 1462.63L2125.33 1436.3L2128.07 1424.46C2181.7 1196.76 2236.93 961.952 2298.09 755.575C2299.69 749.784 2301.28 743.993 2303.11 738.201C2316.58 693.188 2330.95 647.385 2346.24 601.582C2448.49 298.861 2593.63 1.93128 2827.33 1.93128C2872.47 1.88716 2917.06 13.3951 2957.87 35.6254C2964.26 39.574 2972.48 44.049 2980.01 48.7872Z" fill="#FFED00"/>
<path id="yellow_2" d="M5620.45 59.4059V188.128C5612.91 180.758 5605.15 174.177 5597.62 168.122C5559.92 136.205 5514.53 118.631 5467.77 117.844C5308.01 117.844 5171.08 323.958 5036.66 766.194L5031.64 783.041C5017.03 832.003 5002.66 883.07 4988.51 935.191C4942.86 1098.92 4902.01 1276.08 4861.16 1447.45L4857.74 1462.45L4855.23 1473.77C4778.77 1798.6 4699.81 2134.23 4604.18 2393.52C4601.67 2400.89 4598.93 2407.99 4596.2 2415.1C4583.64 2448.27 4569.72 2483.28 4554.43 2518.55C4471.82 2708.08 4346.98 2908.14 4155.05 2908.14C3922.26 2908.14 3776.89 2611.21 3675.79 2308.75C3660.5 2262.95 3646.12 2216.89 3632.65 2171.87C3630.83 2166.08 3629.23 2160.29 3627.63 2154.5C3566.47 1948.12 3511.24 1713.05 3457.61 1485.62L3454.87 1473.77L3448.71 1447.45C3384.58 1174.74 3318.39 896.232 3243.31 666.427C3229.85 625.099 3215.92 585.351 3201.55 547.708L3193.56 527.176C3131.71 372.13 3069.18 261.834 3003 195.235C2995.46 187.602 2987.7 180.494 2980.17 174.177V49.9294C2987.93 54.4044 2995.69 59.1426 3003 64.1441C3108.2 136.007 3185.57 271.574 3241.94 402.139C3257.23 437.412 3271.15 472.423 3283.71 505.59C3286.44 512.698 3289.18 519.805 3291.69 527.176C3387.32 786.2 3466.28 1122.09 3542.73 1446.66L3545.24 1457.71C3546.39 1462.72 3547.53 1467.98 3548.9 1472.98C3589.52 1645.14 3631.06 1821.24 3675.33 1984.71C3689.48 2037.36 3703.86 2088.16 3718.46 2137.39L3723.48 2154.24C3857.68 2597.26 3994.84 2802.85 4154.82 2802.85C4282.62 2802.85 4396.96 2668.86 4504.45 2393.52L4512.44 2372.98C4526.82 2335.34 4540.74 2295.59 4554.2 2254.27C4630.2 2024.46 4696.38 1745.96 4759.6 1473.24L4765.76 1446.92L4768.5 1435.08C4822.13 1207.38 4877.36 972.57 4938.53 766.194C4940.12 760.402 4941.72 754.611 4943.55 748.82C4957.01 703.807 4971.39 658.004 4986.68 612.201C5088.92 309.48 5234.07 12.5499 5467.77 12.5499C5512.91 12.5058 5557.49 24.0137 5598.31 46.2441C5604.7 50.1926 5612.91 54.6676 5620.45 59.4059Z" fill="#FFED00"/>
<path id="yellow_3" d="M8260.93 69.7364V198.459C8253.4 191.088 8245.64 184.507 8238.11 178.453C8200.41 146.536 8155.02 128.962 8108.25 128.175C7948.5 128.175 7811.57 334.288 7677.15 776.524L7672.13 793.371C7657.52 842.333 7643.14 893.401 7628.99 945.521C7583.35 1109.25 7542.5 1286.41 7501.65 1457.78L7498.22 1472.78L7495.71 1484.1C7419.26 1808.93 7340.3 2144.56 7244.67 2403.85C7242.16 2411.22 7239.42 2418.33 7236.68 2425.43C7224.13 2458.6 7210.21 2493.61 7194.92 2528.88C7112.3 2718.41 6987.47 2918.47 6795.54 2918.47C6562.75 2918.47 6417.38 2621.54 6316.27 2319.09C6300.98 2273.28 6286.61 2227.22 6273.14 2182.2C6271.32 2176.41 6269.72 2170.62 6268.12 2164.83C6206.96 1958.45 6151.73 1723.38 6098.1 1495.95L6095.36 1484.1L6089.2 1457.78C6025.07 1185.07 5958.88 906.563 5883.8 676.758C5870.33 635.43 5856.41 595.681 5842.03 558.039L5834.05 537.506C5772.2 382.46 5709.67 272.165 5643.48 205.566C5635.95 197.932 5628.19 190.825 5620.66 184.507V60.26C5628.42 64.735 5636.18 69.4732 5643.48 74.4747C5748.69 146.338 5826.06 281.904 5882.43 412.469C5897.72 447.743 5911.64 482.753 5924.19 515.921C5926.93 523.028 5929.67 530.136 5932.18 537.506C6027.81 796.53 6106.77 1132.42 6183.22 1456.99L6185.73 1468.04C6186.87 1473.05 6188.02 1478.31 6189.38 1483.31C6230.01 1655.47 6271.54 1831.57 6315.82 1995.04C6329.97 2047.69 6344.35 2098.49 6358.95 2147.72L6363.97 2164.57C6498.17 2607.59 6635.33 2813.18 6795.31 2813.18C6923.11 2813.18 7037.45 2679.19 7144.94 2403.85L7152.93 2383.31C7167.31 2345.67 7181.23 2305.92 7194.69 2264.6C7270.69 2034.79 7336.87 1756.29 7400.09 1483.58L7406.25 1457.25L7408.99 1445.41C7462.62 1217.71 7517.85 982.901 7579.01 776.524C7580.61 770.733 7582.21 764.942 7584.03 759.151C7597.5 714.137 7611.88 668.334 7627.17 622.531C7729.41 319.81 7874.56 22.8805 8108.25 22.8805C8153.39 22.8364 8197.98 34.3443 8238.8 56.5747C8245.19 60.5232 8253.4 64.9982 8260.93 69.7364Z" fill="#FFED00"/>
<path id="yellow_4" d="M10897.3 76.8561V205.578C10889.7 198.208 10882 191.627 10874.5 185.572C10836.7 153.655 10791.4 136.081 10744.6 135.294C10584.8 135.294 10447.9 341.408 10313.5 783.644L10308.5 800.491C10293.9 849.453 10279.5 900.52 10265.3 952.641C10219.7 1116.37 10178.8 1293.53 10138 1464.9L10134.6 1479.9L10132.1 1491.22C10055.6 1816.05 9976.63 2151.68 9881.01 2410.97C9878.5 2418.34 9875.76 2425.44 9873.02 2432.55C9860.47 2465.72 9846.55 2500.73 9831.26 2536C9748.64 2725.53 9623.81 2925.59 9431.87 2925.59C9199.09 2925.59 9053.71 2628.66 8952.61 2326.2C8937.32 2280.4 8922.94 2234.34 8909.48 2189.32C8907.65 2183.53 8906.06 2177.74 8904.46 2171.95C8843.3 1965.57 8788.07 1730.5 8734.44 1503.07L8731.7 1491.22L8725.53 1464.9C8661.41 1192.19 8595.22 913.682 8520.14 683.878C8506.67 642.55 8492.75 602.801 8478.37 565.158L8470.39 544.626C8408.54 389.58 8346.01 279.284 8279.82 212.686C8272.29 205.052 8264.53 197.944 8257 191.627V67.3796C8264.76 71.8546 8272.52 76.5928 8279.82 81.5943C8385.03 153.458 8462.4 289.024 8518.77 419.589C8534.06 454.862 8547.98 489.873 8560.53 523.041C8563.27 530.148 8566.01 537.255 8568.52 544.626C8664.14 803.65 8743.11 1139.54 8819.56 1464.11L8822.07 1475.16C8823.21 1480.17 8824.35 1485.43 8825.72 1490.43C8866.35 1662.59 8907.88 1838.69 8952.16 2002.16C8966.31 2054.81 8980.68 2105.61 8995.29 2154.84L9000.31 2171.69C9134.5 2614.71 9271.66 2820.3 9431.65 2820.3C9559.45 2820.3 9673.79 2686.31 9781.28 2410.97L9789.27 2390.43C9803.64 2352.79 9817.57 2313.04 9831.03 2271.72C9907.03 2041.91 9973.21 1763.41 10036.4 1490.69L10042.6 1464.37L10045.3 1452.53C10099 1224.83 10154.2 990.021 10215.4 783.644C10216.9 777.853 10218.5 772.061 10220.4 766.27C10233.8 721.257 10248.2 675.454 10263.5 629.651C10365.7 326.93 10510.9 30.0001 10744.6 30.0001C10789.7 29.956 10834.3 41.4639 10875.1 63.6943C10881.5 67.6428 10889.7 72.1178 10897.3 76.8561Z" fill="#FFED00"/>
</g>
<g id="redg">
<path id="red" d="M2980.01 2670V2813.46C2972.25 2806.62 2964.72 2799.25 2957.19 2791.61C2867.27 2699.48 2799.03 2559.44 2746.77 2424.66C2731.25 2384.39 2717.1 2345.69 2704.32 2306.73L2697.7 2287.25C2617.83 2047.18 2548.9 1754.73 2482.26 1471.22L2480.21 1462.27L2477.7 1452.27L2473.82 1435.95C2433.2 1264.85 2391.66 1087.43 2348.07 923.957C2333.92 871.31 2319.54 820.769 2304.94 771.807L2299.92 754.96C2165.49 312.724 2028.56 106.61 1868.81 106.61C1725.03 106.61 1602.48 267.184 1483.57 611.496C1481.29 617.814 1479.01 623.869 1476.96 630.186C1462.35 673.094 1448.43 717.58 1435.19 764.7C1373.34 970.55 1317.43 1206.67 1263.11 1437.27C1261.52 1443.85 1260.15 1450.17 1258.55 1456.48L1256.95 1463.59L1252.62 1475.44C1199.21 1702.87 1143.98 1937.68 1082.82 2143.79C1081.22 2149.58 1079.63 2155.37 1077.8 2161.17C1064.33 2206.18 1049.96 2252.24 1034.67 2298.05C933.109 2600.51 788.646 2896.91 555.862 2896.91C485.616 2896.06 417.611 2868.27 362.56 2817.94C354.8 2811.62 347.269 2804.51 339.738 2797.14V2647.1C347.497 2657.89 355.029 2668.16 362.56 2677.63C423.494 2755.29 487.396 2791.61 555.862 2791.61C715.615 2791.61 852.547 2585.5 986.968 2143.27L991.989 2126.42C1006.6 2077.19 1020.97 2026.13 1035.12 1973.74C1079.4 1810.27 1120.93 1634.17 1161.56 1462.01L1164.98 1447.27L1167.72 1435.69L1169.77 1427.26C1236.41 1144.02 1306.7 851.304 1385.44 611.233L1392.06 591.754C1404.84 553.848 1418.99 512.783 1434.51 473.824C1523.28 244.809 1657.93 0 1868.12 0C2101.14 1.31618 2246.28 298.246 2348.07 600.967C2363.36 646.77 2377.74 692.573 2391.2 737.586C2393.03 743.378 2394.63 749.169 2396.22 754.96C2457.39 961.6 2512.84 1196.93 2566.48 1424.89L2569.21 1436.21L2571.04 1443.85C2572.41 1450.17 2574.01 1456.22 2575.38 1462.54C2629.69 1693.13 2685.61 1928.99 2747.45 2134.58C2761.15 2180.91 2775.3 2225.13 2789.9 2268.04C2791.96 2274.36 2794.24 2280.41 2796.52 2286.73C2836.05 2411.62 2890.35 2529.61 2957.87 2637.36C2964.26 2649.2 2972.25 2660 2980.01 2670Z" fill="#E30613"/>
<path id="red_2" d="M5620.45 2690.27V2833.74C5612.69 2826.89 5605.15 2819.52 5597.62 2811.89C5507.71 2719.75 5439.47 2579.71 5387.21 2444.94C5371.69 2404.66 5357.54 2365.97 5344.76 2327.01L5338.14 2307.53C5258.26 2067.46 5189.34 1775 5122.7 1491.5L5120.64 1482.55L5118.13 1472.54L5114.25 1456.22C5073.63 1285.12 5032.1 1107.7 4988.51 944.23C4974.36 891.583 4959.98 841.042 4945.37 792.08L4940.35 775.233C4805.93 332.997 4669 126.883 4509.24 126.883C4365.47 126.883 4242.91 287.457 4124.01 631.769C4121.73 638.087 4119.45 644.141 4117.39 650.459C4102.79 693.367 4088.86 737.853 4075.63 784.973C4013.78 990.823 3957.87 1226.95 3903.55 1457.54C3901.95 1464.12 3900.58 1470.44 3898.99 1476.76L3897.39 1483.86L3893.05 1495.71C3839.65 1723.14 3784.42 1957.95 3723.26 2164.06C3721.66 2169.86 3720.06 2175.65 3718.24 2181.44C3704.77 2226.45 3690.39 2272.52 3675.1 2318.32C3573.54 2620.78 3429.08 2917.18 3196.3 2917.18C3126.05 2916.33 3058.05 2888.55 3003 2838.21C2995.24 2831.89 2987.7 2824.79 2980.17 2817.42V2667.37C2987.93 2678.16 2995.46 2688.43 3003 2697.91C3063.93 2775.56 3127.83 2811.89 3196.3 2811.89C3356.05 2811.89 3492.98 2605.77 3627.4 2163.54L3632.42 2146.69C3647.03 2097.47 3661.41 2046.4 3675.56 1994.01C3719.83 1830.54 3761.37 1654.44 3801.99 1482.28L3805.42 1467.54L3808.15 1455.96L3810.21 1447.54C3876.85 1164.3 3947.14 871.577 4025.88 631.506L4032.49 612.027C4045.27 574.121 4059.42 533.056 4074.94 494.097C4163.72 265.082 4298.37 20.2729 4508.56 20.2729C4741.57 21.5891 4886.72 318.519 4988.51 621.24C5003.8 667.043 5018.17 712.846 5031.64 757.859C5033.46 763.65 5035.06 769.442 5036.66 775.233C5097.82 981.873 5153.28 1217.21 5206.91 1445.17L5209.65 1456.49L5211.48 1464.12C5212.85 1470.44 5214.44 1476.49 5215.81 1482.81C5270.13 1713.4 5326.04 1949.26 5387.89 2154.85C5401.58 2201.18 5415.73 2245.4 5430.34 2288.31C5432.39 2294.63 5434.67 2300.68 5436.96 2307C5476.49 2431.89 5530.79 2549.88 5598.31 2657.63C5604.7 2669.48 5612.69 2680.27 5620.45 2690.27Z" fill="#E30613"/>
<path id="red_3" d="M8260.88 2711.51V2854.97C8253.12 2848.13 8245.59 2840.76 8238.06 2833.13C8148.14 2740.99 8079.9 2600.95 8027.64 2466.18C8012.12 2425.9 7997.97 2387.2 7985.19 2348.25L7978.57 2328.77C7898.7 2088.7 7829.77 1796.24 7763.13 1512.74L7761.08 1503.79L7758.57 1493.78L7754.69 1477.46C7714.07 1306.36 7672.53 1128.94 7628.94 965.468C7614.79 912.821 7600.41 862.28 7585.81 813.318L7580.79 796.471C7446.36 354.235 7309.43 148.122 7149.68 148.122C7005.9 148.122 6883.35 308.695 6764.44 653.008C6762.16 659.325 6759.88 665.38 6757.83 671.697C6743.22 714.605 6729.3 759.092 6716.06 806.211C6654.21 1012.06 6598.3 1248.18 6543.98 1478.78C6542.39 1485.36 6541.02 1491.68 6539.42 1497.99L6537.82 1505.1L6533.49 1516.95C6480.08 1744.38 6424.85 1979.19 6363.69 2185.3C6362.09 2191.09 6360.5 2196.89 6358.67 2202.68C6345.21 2247.69 6330.83 2293.76 6315.54 2339.56C6213.98 2642.02 6069.52 2938.42 5836.73 2938.42C5766.49 2937.57 5698.48 2909.78 5643.43 2859.45C5635.67 2853.13 5628.14 2846.02 5620.61 2838.65V2688.61C5628.37 2699.4 5635.9 2709.67 5643.43 2719.14C5704.36 2796.8 5768.27 2833.13 5836.73 2833.13C5996.49 2833.13 6133.42 2627.01 6267.84 2184.78L6272.86 2167.93C6287.47 2118.7 6301.84 2067.64 6315.99 2015.25C6360.27 1851.78 6401.8 1675.68 6442.43 1503.52L6445.85 1488.78L6448.59 1477.2L6450.64 1468.78C6517.28 1185.53 6587.57 892.815 6666.31 652.744L6672.93 633.265C6685.71 595.359 6699.86 554.294 6715.38 515.335C6804.15 286.32 6938.8 41.5112 7148.99 41.5112C7382.01 42.8274 7527.15 339.757 7628.94 642.478C7644.23 688.281 7658.61 734.084 7672.07 779.098C7673.9 784.889 7675.5 790.68 7677.09 796.471C7738.26 1003.11 7793.71 1238.44 7847.35 1466.41L7850.08 1477.73L7851.91 1485.36C7853.28 1491.68 7854.88 1497.73 7856.25 1504.05C7910.56 1734.64 7966.48 1970.5 8028.32 2176.09C8042.02 2222.42 8056.17 2266.64 8070.77 2309.55C8072.83 2315.87 8075.11 2321.92 8077.39 2328.24C8116.92 2453.13 8171.22 2571.12 8238.74 2678.87C8245.13 2690.72 8253.12 2701.51 8260.88 2711.51Z" fill="#E30613"/>
</g>
</g>
</svg>
